<svg xmlns="http://www.w3.org/2000/svg" height="1200" width="1600" version="1.1" xmlns:xlink="http://www.w3.org/1999/xlink" xmlns:svgjs="http://svgjs.com/svgjs"><rect fill="#00000000" width="1600" height="1200"></rect><g><path d="M646.08 991.07C659.04 991.07 669.56 980.55 669.56 967.59 669.56 954.62 659.04 944.1 646.08 944.1 633.11 944.1 622.59 954.62 622.59 967.59 622.59 980.55 633.11 991.07 646.08 991.07Z" stroke="#ffc930" stroke-width="4" stroke-linecap="round" stroke-linejoin="round" opacity="1" fill="none"></path></g><g><path d="M829.94 882.44L845.83 886.21 832.34 895.35 836.97 911.01 822.29 903.93 811.09 915.75 809.89 899.47 794 895.7 807.49 886.5 802.86 870.9 817.54 877.98 828.74 866.16 829.94 882.44Z" fill="#61ccff" opacity="1" stroke-width="4" stroke="none"></path></g><g><path d="M304 507.33C313.93 507.33 321.98 499.28 321.98 489.35 321.98 479.42 313.93 471.37 304 471.37 294.07 471.37 286.02 479.42 286.02 489.35 286.02 499.28 294.07 507.33 304 507.33Z" stroke="#61ccff" stroke-width="4" stroke-linecap="round" stroke-linejoin="round" opacity="1" fill="none"></path></g><g><path d="M1329.61 362.23C1339.67 362.23 1347.82 354.08 1347.82 344.02 1347.82 333.97 1339.67 325.81 1329.61 325.81 1319.55 325.81 1311.4 333.97 1311.4 344.02 1311.4 354.08 1319.55 362.23 1329.61 362.23Z" stroke="#61ccff" stroke-width="4" stroke-linecap="round" stroke-linejoin="round" opacity="1" fill="none"></path></g><g><path d="M658.59 228.82L678.6 233.57 661.62 245.08 667.44 264.8 648.95 255.87 634.85 270.77 633.34 250.26 613.34 245.51 630.32 233.93 624.49 214.29 642.98 223.21 657.08 208.32 658.59 228.82Z" fill="#ffc930" opacity="1" stroke-width="4" stroke="none"></path></g><g><path d="M551.84 336.91L1100.64 339.23C1119.18 339.23 1124.26 341.17 1124.26 359.71L1134.2 386.7V791.91C1134.2 810.44 1119.18 825.47 1100.64 825.47H551.84C533.3 825.47 518.27 810.44 518.27 791.91V386.7L527.32 359.71C527.32 341.17 533.3 336.91 551.84 336.91Z" fill="#efdcd7" opacity="1" stroke-width="4" stroke="none"></path><path d="M551.84 326.15H1100.64C1119.18 326.15 1134.2 341.17 1134.2 359.71V386.7H518.27V359.71C518.27 341.17 533.3 326.15 551.84 326.15Z" fill="#c8b0aa" opacity="1" stroke-width="4" stroke="none"></path><path d="M565.59 367.63C571.37 367.63 576.05 362.95 576.05 357.17 576.05 351.39 571.37 346.71 565.59 346.71 559.81 346.71 555.13 351.39 555.13 357.17 555.13 362.95 559.81 367.63 565.59 367.63Z" fill="#ffffff" opacity="1" stroke-width="4" stroke="none"></path><path d="M599.6 367.63C605.38 367.63 610.07 362.95 610.07 357.17 610.07 351.39 605.38 346.71 599.6 346.71 593.82 346.71 589.14 351.39 589.14 357.17 589.14 362.95 593.82 367.63 599.6 367.63Z" fill="#f0ddd8" opacity="1" stroke-width="4" stroke="none"></path><path d="M633.61 367.63C639.39 367.63 644.08 362.95 644.08 357.17 644.08 351.39 639.39 346.71 633.61 346.71 627.83 346.71 623.15 351.39 623.15 357.17 623.15 362.95 627.83 367.63 633.61 367.63Z" fill="#f0ddd8" opacity="1" stroke-width="4" stroke="none"></path><path d="M748.95 356.95H903.6" stroke="#f0ddd8" stroke-width="4" stroke-linecap="round" stroke-linejoin="round" opacity="1" fill="none"></path></g><g><path d="M796.54 497.3V719.12" stroke="#ff9edd" stroke-width="4" stroke-linecap="round" stroke-linejoin="round" opacity="1" fill="none"></path><path d="M785.71 575.97H807.46C815.6 575.97 822.1 582.56 822.1 590.62V640.96C822.1 649.1 815.52 655.6 807.46 655.6H785.71C777.57 655.6 771.07 649.02 771.07 640.96V590.62C770.98 582.47 777.57 575.97 785.71 575.97Z" fill="#61ccff" opacity="1" stroke-width="4" stroke="none"></path><path d="M805.21 610.11H787.88" stroke="#141515" stroke-width="4" stroke-linecap="round" stroke-linejoin="round" opacity="1" fill="none"></path><path d="M805.21 621.38H787.88" stroke="#141515" stroke-width="4" stroke-linecap="round" stroke-linejoin="round" opacity="1" fill="none"></path><path d="M910.05 497.3V719.12" stroke="#ff9edd" stroke-width="4" stroke-linecap="round" stroke-linejoin="round" opacity="1" fill="none"></path><path d="M899.22 532.65H920.97C929.11 532.65 935.61 539.23 935.61 547.29V597.64C935.61 605.78 929.03 612.28 920.97 612.28H899.22C891.08 612.28 884.58 605.69 884.58 597.64V547.29C884.49 539.15 891.08 532.65 899.22 532.65Z" fill="#61ccff" opacity="1" stroke-width="4" stroke="none"></path><path d="M918.72 566.79H901.39" stroke="#141515" stroke-width="4" stroke-linecap="round" stroke-linejoin="round" opacity="1" fill="none"></path><path d="M918.72 578.05H901.39" stroke="#141515" stroke-width="4" stroke-linecap="round" stroke-linejoin="round" opacity="1" fill="none"></path><path d="M1015.76 497.3V719.12" stroke="#ff9edd" stroke-width="4" stroke-linecap="round" stroke-linejoin="round" opacity="1" fill="none"></path><path d="M1004.93 614.1H1026.68C1034.82 614.1 1041.32 620.68 1041.32 628.74V679.08C1041.32 687.23 1034.74 693.73 1026.68 693.73H1004.93C996.79 693.73 990.29 687.14 990.29 679.08V628.74C990.2 620.6 996.79 614.1 1004.93 614.1Z" fill="#61ccff" opacity="1" stroke-width="4" stroke="none"></path><path d="M1024.43 648.24H1007.1" stroke="#141515" stroke-width="4" stroke-linecap="round" stroke-linejoin="round" opacity="1" fill="none"></path><path d="M1024.43 659.5H1007.1" stroke="#141515" stroke-width="4" stroke-linecap="round" stroke-linejoin="round" opacity="1" fill="none"></path><path d="M663.62 589.84C689.23 589.84 709.98 569.08 709.98 543.48 709.98 517.88 689.23 497.12 663.62 497.12 638.02 497.12 617.27 517.88 617.27 543.48 617.27 569.08 638.02 589.84 663.62 589.84Z" fill="#ff9edd" opacity="1" stroke-width="4" stroke="none"></path><path d="M663.62 498.16V519.83" stroke="#ffffff" stroke-width="4" stroke-linecap="round" stroke-linejoin="round" opacity="1" fill="none"></path><path d="M663.36 719.12C688.97 719.12 709.72 698.36 709.72 672.76 709.72 647.15 688.97 626.4 663.36 626.4 637.76 626.4 617.01 647.15 617.01 672.76 617.01 698.36 637.76 719.12 663.36 719.12Z" fill="#ff9edd" opacity="1" stroke-width="4" stroke="none"></path><path d="M663.8 626.4V648.06" stroke="#ffffff" stroke-width="4" stroke-linecap="round" stroke-linejoin="round" opacity="1" fill="none"></path></g><g><path d="M624.17 805.7L575.97 849.73 647.67 831.26 626.58 926.33 704.97 837.08 735.55 923.99 745.53 851.58" stroke="#231f20" stroke-width="4" stroke-linecap="round" stroke-linejoin="round" opacity="1" fill="none"></path></g><g><path d="M300.48 670.15C334.65 664.03 357.4 631.37 351.29 597.19 345.17 563.02 312.51 540.27 278.34 546.38 244.16 552.5 221.41 585.16 227.53 619.34 233.64 653.51 266.3 676.26 300.48 670.15Z" fill="#ff9edd" opacity="1" stroke-width="4" stroke="none"></path><path d="M311.75 585.16C304.4 580.04 294.37 581.83 289.25 589.18L286.58 593.01 282.75 590.34C275.34 585.42 265.35 587.4 260.34 594.82 255.56 602.01 257.29 611.68 264.26 616.77L268.1 619.44 292.27 636.28C293.55 637.17 295.36 636.85 296.25 635.57L313.09 611.39 315.76 607.56C320.8 600.32 319.1 590.27 311.75 585.16Z" fill="#ffffff" opacity="1" stroke-width="4" stroke="none"></path></g><g><path d="M1003.3 180.47H782.53C767.58 180.47 755.49 192.55 755.49 207.5V414.92C755.49 429.87 767.58 441.96 782.53 441.96H1003.3C1018.25 441.96 1030.33 429.87 1030.33 414.92V207.5C1030.33 192.55 1018.2 180.47 1003.3 180.47Z" fill="#ffffff" opacity="1" stroke-width="4" stroke="none"></path><path d="M785.06 228.47C791.2 228.47 796.17 223.5 796.17 217.36 796.17 211.22 791.2 206.24 785.06 206.24 778.92 206.24 773.94 211.22 773.94 217.36 773.94 223.5 778.92 228.47 785.06 228.47Z" fill="#61ccff" opacity="1" stroke-width="4" stroke="none"></path><path d="M817.34 228.47C823.48 228.47 828.45 223.5 828.45 217.36 828.45 211.22 823.48 206.24 817.34 206.24 811.2 206.24 806.22 211.22 806.22 217.36 806.22 223.5 811.2 228.47 817.34 228.47Z" fill="#61ccff" opacity="1" stroke-width="4" stroke="none"></path><path d="M849.66 228.47C855.8 228.47 860.78 223.5 860.78 217.36 860.78 211.22 855.8 206.24 849.66 206.24 843.52 206.24 838.55 211.22 838.55 217.36 838.55 223.5 843.52 228.47 849.66 228.47Z" fill="#61ccff" opacity="1" stroke-width="4" stroke="none"></path></g><g><path d="M882.62 307.37C881.34 284.98 878.65 271.55 874.94 271.55 870.46 271.55 869.83 281.14 869.83 281.14 869.83 281.14 865.35 255.56 860.23 254.28 855.24 253.06 854.47 261.95 854.47 261.95 849.74 249.1 842.96 256.2 843.6 260.03 843.6 260.03 835.92 257.47 837.84 273.47 839.12 284.28 840.4 290.74 840.4 290.74 839.76 293.3 834.64 274.75 830.17 276.66 827.03 278.01 831.25 294.64 834.64 306.73 837.84 318.24 841.04 324 841.04 324 841.04 324 837.78 330.97 834.52 339.29L875.84 351.51C879.8 333.91 883.13 316.13 882.62 307.37Z" fill="#e5bb98" opacity="1" stroke-width="4" stroke="none"></path><path d="M843.6 260.03L853.19 295.21" stroke="#000000" stroke-width="4" stroke-linecap="round" stroke-linejoin="round" opacity="1" fill="none"></path><path d="M839.76 289.39L843.02 297.97" stroke="#000000" stroke-width="4" stroke-linecap="round" stroke-linejoin="round" opacity="1" fill="none"></path><path d="M913.32 334.23L873.6 361.1C874.49 357.26 875.39 353.49 876.22 349.78L835.16 337.75C824.73 364.23 807.65 419.95 848.08 419.95 882.62 419.95 936.99 387.33 936.99 387.33L913.32 334.23Z" fill="#ffc930" opacity="1" stroke-width="4" stroke="none"></path><path d="M884.03 354L873.6 361.1 869.38 379.59 884.03 354Z" fill="#0f0d07" opacity="0.2" stroke-width="4" stroke="none"></path><path d="M822.55 387.97C821.85 405.56 827.54 420.08 848.08 420.08 852.81 420.01 857.54 419.37 862.15 418.48 858.31 399.48 841.04 386.69 822.55 387.97Z" fill="#ff9edd" opacity="1" stroke-width="4" stroke="none"></path><path d="M873.66 361.1L869.83 378.37" stroke="#000000" stroke-width="4" stroke-linecap="round" stroke-linejoin="round" opacity="1" fill="none"></path><path d="M882.62 307.37C881.34 284.98 858.89 276.73 855.82 288.56 855.56 303.15 855.18 316.84 857.29 325.98 861.19 341.4 878.97 336.79 878.97 336.79 881.47 324.51 883 313.89 882.62 307.37Z" fill="#151414" opacity="0.2" stroke-width="4" stroke="none"></path><path d="M911.15 305.71C911.15 305.71 925.8 284.15 914.79 276.22 902.96 267.65 891.13 284.02 891.13 284.02 880.89 279.54 875.26 264.96 871.42 254.72 863.81 270.01 859.65 283.64 849.36 286.84L849.16 286.9C851.34 294.58 854.22 302.06 855.75 308.65 857.8 317.6 865.35 329.5 873.79 331.87 884.15 334.81 894 330.08 899.76 323.04L906.93 332.96 921.32 322.98 921.64 322.78C915.63 316.64 912.04 308.78 911.15 305.71Z" fill="#e5bb98" opacity="1" stroke-width="4" stroke="none"></path><path d="M904.75 354.51C902.13 376.45 905.13 393.72 908.2 402.36 924.71 394.68 936.99 387.33 936.99 387.33L904.75 354.51Z" fill="#0f0d07" opacity="0.2" stroke-width="4" stroke="none"></path><path d="M899.7 322.98L906.93 332.96 905.9 313.38C903.34 318.56 899.7 322.98 899.7 322.98Z" fill="#151414" opacity="0.2" stroke-width="4" stroke="none"></path><path d="M871.04 464.73C858.31 485.83 858.18 519.29 860.87 528.69 862.15 533.17 870.46 527.41 871.74 509.5 875.58 515.9 883.26 510.14 883.26 510.14 889.02 515.9 894.77 508.86 894.77 508.86 894.77 508.86 900.47 513.47 905.65 506.94 910.76 500.55 907.57 495.43 903.09 497.35 903.47 495.05 903.47 492.62 903.09 490.31 907.76 484.94 911.28 478.61 913.32 471.76 913.32 471.76 918.63 469.84 930.15 464.41L902.83 430.63C892.92 438.82 878.59 452.12 871.04 464.73Z" fill="#e5bb98" opacity="1" stroke-width="4" stroke="none"></path><path d="M983.05 319.52C952.34 304.81 905.65 313.13 897.97 341.91 891.83 364.87 931.23 409.08 931.23 409.08 914.6 420.59 901.81 431.46 901.81 431.46L929.31 464.73C929.31 464.73 976.65 445.54 981.13 419.95H1030.57V347.99C1030.57 347.99 1002.94 329.05 983.05 319.52Z" fill="#ffc930" opacity="1" stroke-width="4" stroke="none"></path><path d="M971.08 384.64C982.47 404.09 981.57 415.98 981.13 419.95H1006.65L971.08 384.64Z" fill="#0f0d07" opacity="0.2" stroke-width="4" stroke="none"></path><path d="M1039.5 278.19C1053.81 265.68 1056.95 245.88 1046.53 233.97 1036.11 222.06 1016.07 222.54 1001.77 235.06 987.46 247.57 984.31 267.37 994.73 279.29 1005.15 291.2 1025.2 290.71 1039.5 278.19Z" fill="#171314" opacity="1" stroke-width="4" stroke="none"></path><path d="M990.08 264.51C955.54 245.96 928.03 274.75 928.03 274.75L923.11 259.46C923.11 259.46 913.19 232.72 888.95 235.02 855.69 238.22 847.31 259.27 847.82 276.28 848.14 281.65 848.2 283.38 849.36 287.54 856.9 285.81 865.8 277.75 869.76 266.24 872.19 276.02 884.67 283.45 891.51 285.56 891.51 285.56 902.06 268.67 913.9 277.24 924.9 285.17 908.97 305.13 908.97 305.13 909.87 308.2 916.78 319.78 920.93 323.94 926.05 329.05 946.9 347.99 971.4 315.24 971.4 315.24 989.44 321.95 1006.01 332.25 1006.07 332.32 1026.22 283.89 990.08 264.51Z" fill="#171314" opacity="1" stroke-width="4" stroke="none"></path><path d="M891.13 225.17C868.29 224.4 855.11 237.52 850 252.68 847.69 261.82 847.44 267.07 847.76 276.22L923.05 259.33C919.78 250.18 911.08 225.94 891.13 225.17Z" fill="#ffc930" opacity="1" stroke-width="4" stroke="none"></path><path d="M887.99 226.51C897.71 226.51 905.58 218.64 905.58 208.92 905.58 199.21 897.71 191.33 887.99 191.33 878.28 191.33 870.4 199.21 870.4 208.92 870.4 218.64 878.28 226.51 887.99 226.51Z" fill="#ff9edd" opacity="1" stroke-width="4" stroke="none"></path><path d="M975.37 393.08C975.37 393.08 942.75 411.51 962.64 445.47 971.66 438.31 979.46 429.61 981.13 419.95 983.05 407.16 975.37 393.08 975.37 393.08Z" fill="#ff9edd" opacity="1" stroke-width="4" stroke="none"></path><path d="M975.37 393.08L960.66 364.3" stroke="#000000" stroke-width="4" stroke-linecap="round" stroke-linejoin="round" opacity="1" fill="none"></path><path d="M910.7 381.57C914.09 386.94 917.54 391.87 920.74 396.09" stroke="#000000" stroke-width="4" stroke-linecap="round" stroke-linejoin="round" opacity="1" fill="none"></path><path d="M901.81 293.3L906.29 287.54" stroke="#000000" stroke-width="4" stroke-linecap="round" stroke-linejoin="round" opacity="1" fill="none"></path><path d="M899.76 323.04C899.76 323.04 903.09 318.11 904.37 314.92" stroke="#000000" stroke-width="4" stroke-linecap="round" stroke-linejoin="round" opacity="1" fill="none"></path><path d="M855.75 308.65C857.8 317.6 862.41 327.2 871.49 330.84 873.41 331.61 877.31 332.57 879.61 332.57" stroke="#000000" stroke-width="4" stroke-linecap="round" stroke-linejoin="round" opacity="1" fill="none"></path><path d="M1009.4 287.41C1006.59 278.58 1001.34 270.59 990.66 264.83 990.15 264.51 989.12 264 988.61 263.74" stroke="#000000" stroke-width="4" stroke-linecap="round" stroke-linejoin="round" opacity="1" fill="none"></path><path d="M931.23 409.08L937.89 404.79" stroke="#000000" stroke-width="4" stroke-linecap="round" stroke-linejoin="round" opacity="1" fill="none"></path><path d="M894.77 508.86C890.29 505.02 890.93 494.79 890.93 494.79" stroke="#000000" stroke-width="4" stroke-linecap="round" stroke-linejoin="round" opacity="1" fill="none"></path><path d="M883.26 510.14C881.34 507.58 879.42 501.83 879.42 495.43" stroke="#000000" stroke-width="4" stroke-linecap="round" stroke-linejoin="round" opacity="1" fill="none"></path><path d="M871.74 509.5C870.46 506.94 869.19 499.91 869.19 495.43" stroke="#000000" stroke-width="4" stroke-linecap="round" stroke-linejoin="round" opacity="1" fill="none"></path><path d="M903.09 497.35L902.45 502.47" stroke="#000000" stroke-width="4" stroke-linecap="round" stroke-linejoin="round" opacity="1" fill="none"></path><path d="M868.1 299.82L868.42 301.68C868.61 302.7 869.38 303.59 870.4 303.91L870.66 303.98" stroke="#000000" stroke-width="4" stroke-linecap="round" stroke-linejoin="round" opacity="1" fill="none"></path><path d="M872.06 311.97C873.47 312.17 876.86 310.69 877.69 307.3" stroke="#000000" stroke-width="4" stroke-linecap="round" stroke-linejoin="round" opacity="1" fill="none"></path><path d="M875.9 294.06C877.07 294.06 878.01 293.12 878.01 291.95 878.01 290.79 877.07 289.84 875.9 289.84 874.73 289.84 873.79 290.79 873.79 291.95 873.79 293.12 874.73 294.06 875.9 294.06Z" fill="#171314" opacity="1" stroke-width="4" stroke="none"></path><path d="M859.97 299.44C861.14 299.44 862.09 298.49 862.09 297.33 862.09 296.16 861.14 295.21 859.97 295.21 858.81 295.21 857.86 296.16 857.86 297.33 857.86 298.49 858.81 299.44 859.97 299.44Z" fill="#171314" opacity="1" stroke-width="4" stroke="none"></path><path d="M1029.1 347.03V419.95" stroke="#000000" stroke-width="4" stroke-linecap="round" stroke-linejoin="round" opacity="1" fill="none"></path></g><g><path d="M1302.4 575.1H1018.96C999.76 575.1 984.24 590.62 984.24 609.81L984.24 876.11C984.24 895.31 999.76 910.82 1018.96 910.82H1302.4C1321.59 910.82 1337.11 895.31 1337.11 876.11L1337.11 609.81C1337.11 590.62 1321.53 575.1 1302.4 575.1Z" fill="#ffffff" opacity="1" stroke-width="4" stroke="none"></path><path d="M1022.2 636.73C1030.08 636.73 1036.47 630.35 1036.47 622.46 1036.47 614.58 1030.08 608.19 1022.2 608.19 1014.31 608.19 1007.93 614.58 1007.93 622.46 1007.93 630.35 1014.31 636.73 1022.2 636.73Z" fill="#f3ebe9" opacity="1" stroke-width="4" stroke="none"></path><path d="M1063.64 636.73C1071.53 636.73 1077.91 630.35 1077.91 622.46 1077.91 614.58 1071.53 608.19 1063.64 608.19 1055.76 608.19 1049.37 614.58 1049.37 622.46 1049.37 630.35 1055.76 636.73 1063.64 636.73Z" fill="#f3ebe9" opacity="1" stroke-width="4" stroke="none"></path><path d="M1105.15 636.73C1113.03 636.73 1119.42 630.35 1119.42 622.46 1119.42 614.58 1113.03 608.19 1105.15 608.19 1097.26 608.19 1090.88 614.58 1090.88 622.46 1090.88 630.35 1097.26 636.73 1105.15 636.73Z" fill="#f3ebe9" opacity="1" stroke-width="4" stroke="none"></path></g><g><path d="M1009.94 852.76C993.19 854.36 976.73 855.85 966.65 857.05 940.32 860.04 919.07 864.13 919.07 870.22 919.07 872.11 920.87 873.81 923.66 875 901.92 884.68 884.06 898.25 891.34 906.72 891.34 906.72 882.76 917.7 896.93 921.79 896.93 921.79 897.93 932.86 915.18 927.37 915.18 927.37 916.88 933.56 928.35 931.96 942.51 929.96 977.13 915.7 977.13 915.7H1009.34L1014.13 915.8 1023.81 881.39 1009.94 852.76Z" fill="#e59763" opacity="1" stroke-width="4" stroke="none"></path><path d="M1226 729.87C1226 729.87 1226.1 729.87 1226.2 729.87 1220.71 728.47 1215.13 727.58 1209.84 726.58 1209.74 726.58 1209.74 726.48 1209.74 726.48 1209.94 725.68 1211.14 719.6 1211.63 716.5 1214.83 700.14 1216.12 680.39 1217.72 672.61 1220.21 659.05 1225.8 632.22 1210.54 618.55 1195.28 604.99 1170.54 601.59 1150.99 609.27 1132.63 616.46 1130.84 626.73 1123.16 649.07 1123.16 649.07 1123.16 649.17 1123.06 649.17 1122.36 649.27 1114.58 650.17 1113.88 653.46 1112.88 656.95 1117.67 663.14 1118.17 663.74V663.84C1112.19 682.59 1112.19 692.86 1118.57 701.54 1125.25 710.92 1142.11 711.82 1150.69 708.42 1150.79 708.42 1150.79 708.42 1150.79 708.52L1147.6 728.57C1147.6 728.57 1147.6 728.67 1147.5 728.67 1146.8 728.77 1141.21 729.27 1134.13 731.57 1134.03 731.57 1134.03 731.67 1134.13 731.77 1143.61 741.84 1156.67 757 1173.73 757.2 1188.79 757.3 1206.95 744.03 1226 729.87Z" fill="#e59763" opacity="1" stroke-width="4" stroke="none"></path><path d="M1287.74 824.63C1284.55 787.42 1269.79 757 1253.53 742.74 1248.54 738.35 1235.57 731.67 1226.2 729.87 1226.2 729.87 1226.1 729.87 1226 729.87 1184.9 760.39 1151.79 750.52 1134.13 731.57 1118.67 736.65 1101.51 747.82 1089.14 779.05 1073.98 817.45 1064.8 847.87 1064.8 847.87 1064.8 847.87 1037.17 850.17 1009.94 852.76L1014.13 915.8H1065C1065 915.8 1094.33 910.81 1114.68 908.72 1127.75 907.42 1180.91 915.4 1182.01 915.6L1238.27 915.8C1260.51 915.8 1277.77 907.72 1284.85 889.47 1290.93 873.31 1288.34 834.21 1287.74 824.63Z" fill="#61ccff" opacity="1" stroke-width="4" stroke="none"></path><path d="M1165.25 702.55L1150.09 718.81C1149.79 719.11 1149.19 718.91 1149.29 718.41L1150.79 708.63C1150.79 708.43 1150.89 708.33 1151.09 708.23 1156.57 706.14 1160.56 703.95 1164.75 701.75 1165.15 701.55 1165.55 702.15 1165.25 702.55Z" fill="#030202" opacity="0.2" stroke-width="4" stroke="none"></path><path d="M1213.33 613.16C1198.07 599.6 1173.33 596.21 1153.78 603.89 1142.41 608.28 1136.32 615.96 1131.54 626.13V626.23C1132.03 626.93 1138.72 635.01 1161.86 628.43 1161.96 628.43 1161.96 628.43 1161.96 628.53 1156.27 649.87 1167.15 660.84 1168.04 661.74H1168.14C1169.44 660.64 1189.49 642.89 1200.36 654.76 1215.03 670.52 1191.68 690.97 1190.29 692.17V692.26C1197.17 701.94 1213.13 700.74 1214.33 700.64 1214.33 700.64 1214.43 700.64 1214.43 700.54 1216.92 686.98 1219.71 673.01 1220.71 667.43 1223.3 653.76 1228.59 626.93 1213.33 613.16Z" fill="#cf5934" opacity="1" stroke-width="4" stroke="none"></path><path d="M1134.53 655.16C1136.12 655.16 1137.42 653.87 1137.42 652.27 1137.42 650.67 1136.12 649.37 1134.53 649.37 1132.93 649.37 1131.64 650.67 1131.64 652.27 1131.64 653.87 1132.93 655.16 1134.53 655.16Z" fill="#010005" opacity="1" stroke-width="4" stroke="none"></path><path d="M1081.96 885.69C1067.1 906.33 1046.95 906.63 1042.06 915.61 1042.06 915.71 1042.06 915.81 1042.16 915.81H1064.9C1065.2 915.81 1094.33 910.82 1114.58 908.73 1114.58 908.73 1114.58 908.73 1114.68 908.73L1122.06 899.95C1122.06 899.95 1122.06 899.95 1122.06 899.85L1117.37 827.63C1117.37 827.53 1117.27 827.53 1117.27 827.53 1104.01 827.73 1099.22 861.85 1081.96 885.69Z" fill="#000000" opacity="0.2" stroke-width="4" stroke="none"></path><path d="M1128.74 865.13C1106.4 873.21 1086.65 886.77 1082.16 892.46 1075.78 900.64 1088.44 903.13 1090.84 903.43 1091.04 903.43 1091.14 903.63 1091.04 903.83 1085.05 912.01 1078.77 925.88 1077.07 930.86 1071.99 946.12 1079.47 946.22 1080.96 946.02 1081.06 946.02 1081.26 946.12 1081.26 946.22 1082.26 961.19 1093.03 954.9 1094.33 954.1 1094.43 954.1 1094.53 954.1 1094.53 954.1 1109.69 962.98 1125.85 927.77 1125.85 927.77 1123.86 931.86 1121.06 947.02 1128.84 947.02 1136.92 947.02 1145.6 915.6 1159.17 915.6H1181.71C1181.81 915.6 1182.01 915.5 1181.91 915.3L1177.32 853.46C1177.32 853.36 1177.22 853.26 1177.02 853.26 1161.86 855.25 1139.52 861.14 1128.74 865.13Z" fill="#e59763" opacity="1" stroke-width="4" stroke="none"></path><path d="M1190.79 851.96C1205.75 850.76 1205.55 849.57 1217.72 848.87 1217.82 848.87 1217.82 848.77 1217.82 848.77L1213.43 808.57C1213.43 808.47 1213.33 808.47 1213.33 808.47 1197.87 809.57 1204.65 838.5 1190.69 851.76 1190.59 851.86 1190.69 851.96 1190.79 851.96Z" fill="#000000" opacity="0.2" stroke-width="4" stroke="none"></path><path d="M1133.33 672.62C1131.64 676.12 1126.55 676.61 1124.06 675.62" stroke="#030202" stroke-width="4" stroke-linecap="round" stroke-linejoin="round" opacity="1" fill="none"></path><path d="M1164.75 701.74C1164.75 701.74 1155.08 706.53 1150.89 708.32" stroke="#030202" stroke-width="4" stroke-linecap="round" stroke-linejoin="round" opacity="1" fill="none"></path><path d="M1117.37 827.53L1119.97 866.73" stroke="#000000" stroke-width="4" stroke-linecap="round" stroke-linejoin="round" opacity="1" fill="none"></path><path d="M1081.16 946.13C1092.24 920.8 1109.49 899.55 1109.49 899.55" stroke="#030202" stroke-width="4" stroke-linecap="round" stroke-linejoin="round" opacity="1" fill="none"></path><path d="M1094.33 954.2C1106.5 929.87 1122.66 907.62 1122.66 907.62" stroke="#030202" stroke-width="4" stroke-linecap="round" stroke-linejoin="round" opacity="1" fill="none"></path><path d="M1125.85 927.78L1132.43 915.81" stroke="#030202" stroke-width="4" stroke-linecap="round" stroke-linejoin="round" opacity="1" fill="none"></path><path d="M891.34 906.72L934.63 884.28" stroke="#030202" stroke-width="4" stroke-linecap="round" stroke-linejoin="round" opacity="1" fill="none"></path><path d="M896.83 921.79L951.59 895.45" stroke="#030202" stroke-width="4" stroke-linecap="round" stroke-linejoin="round" opacity="1" fill="none"></path><path d="M915.18 927.37L953.59 911.71" stroke="#030202" stroke-width="4" stroke-linecap="round" stroke-linejoin="round" opacity="1" fill="none"></path><path d="M1177.32 853.46C1188.39 851.86 1217.82 848.87 1217.82 848.87L1213.33 808.47" stroke="#000000" stroke-width="4" stroke-linecap="round" stroke-linejoin="round" opacity="1" fill="none"></path></g><g><path d="M358.57 951.67C366.7 929.7 386.69 901.85 404.41 877.08 407.21 873.1 410.1 869.21 412.82 865.33L413 865.15 330.99 845.34 327.28 847.15C323.67 852.22 320.86 856.56 317.97 861.17 310.1 873.83 303.05 886.94 296.99 900.59 294.01 907.37 291.21 914.06 288.49 921.2L294.91 971.29 358.57 951.67Z" fill="#c65a42" opacity="1" stroke-width="4" stroke="none"></path><path d="M393.11 892.9C396.9 887.57 400.7 882.23 404.41 876.99 407.21 873.01 408.48 871.29 411.28 867.41L412.91 865.05 339.58 843.72 339.4 844.08C354.77 852.4 368.6 863.34 380.27 876.27 388.77 885.76 392.65 892.81 392.74 892.9L392.92 893.17 393.11 892.9Z" fill="#222020" opacity="0.3" stroke-width="4" stroke="none"></path><path d="M517.7 475C520.5 475.9 523.49 476.35 526.47 476.26 534.61 476.26 541.48 473.46 544.82 468.76 550.34 461.25 550.43 452.48 545.37 436.57 545.91 435.85 549.8 430.87 549.07 427.71 548.62 425.9 545.91 424.54 541.12 423.91L540.67 422.37C538.13 414.78 535.78 408.09 532.98 402.57 529 394.8 517.43 396.79 508.39 393.35 502.42 391 502.78 390.73 496.45 390.82 484.25 390.82 479.45 388.56 471.41 395.79 458.57 407.37 460.38 426.71 462.64 438.56L464.72 440.1C465.8 447.06 463.72 469.66 466.52 483.59V483.77L516.89 486.57 518.69 481.15 517.7 475Z" fill="#c65a42" opacity="1" stroke-width="4" stroke="none"></path><path d="M517.7 475L510.74 472.19C510.47 472.1 510.29 472.01 510.01 472.01 509.47 472.01 508.93 472.28 508.66 472.74 508.39 473.19 508.3 473.73 508.57 474.27L513.18 484.76 518.69 481.15 517.7 475Z" fill="#222020" opacity="0.3" stroke-width="4" stroke="none"></path><path d="M523.49 956.65C523.76 949.68 524.57 943.9 524.93 941.37 526.65 929.25 528.73 914.42 531.44 896.25L514.08 747.97 454.14 871.47C452.6 878.35 450.25 890.28 449.34 896.52 447.08 911.26 445.91 926.09 445.73 941 445.73 946.07 445.64 951.22 445.82 956.47L475.11 1008.37 523.49 956.65Z" fill="#c65a42" opacity="1" stroke-width="4" stroke="none"></path><path d="M520.41 847.69L514.53 756.74C514.35 754.38 511.19 753.75 510.19 755.83L454.23 871.29C454.14 871.47 454.05 871.66 454.05 871.84 453.68 873.46 453.32 875.36 452.96 877.44 452.24 880.88 451.51 884.77 450.88 888.2 450.7 889.02 451.06 889.83 451.7 890.37L469.87 905.29C470.86 906.1 472.31 905.92 473.12 905.02L520.05 849.41C520.32 848.87 520.5 848.24 520.41 847.69Z" fill="#222020" opacity="0.3" stroke-width="4" stroke="none"></path><path d="M562.55 1022.38L563 1021.48C561.28 1019.03 559.38 1016.95 557.12 1015.15 555.95 1014.24 554.59 1013.07 552.96 1011.8 546.81 1006.92 538.4 1000.23 532.71 994.26 525.93 987.03 522.76 974 523.49 956.64V956.46H506.67C499.89 956.46 493.65 960.16 490.39 966.04L476.2 992C476.11 992.09 476.02 992.09 476.02 992L472.31 971.74C470.68 962.97 463 956.55 454.05 956.55H445.91V956.73C446.54 978.61 448.8 1000.14 452.96 1021.57 452.96 1021.57 452.96 1021.57 452.96 1021.66L453.59 1022.38H453.68 562.55Z" fill="#ff9edd" opacity="1" stroke-width="4" stroke="none"></path><path d="M663.54 544.62C667.43 536.84 669.42 531.42 669.78 530.6 670.87 530.33 680.36 527.98 688.59 515.96 689.04 516.86 690.76 519.57 693.83 519.57 696 519.57 698.35 518.31 700.97 515.68 707.21 509.45 708.03 505.02 707.57 502.39 707.3 500.49 706.22 498.96 704.59 498.05 705.77 495.16 705.86 492.63 704.86 490.46 704.14 488.83 702.78 487.47 701.06 486.66 704.05 480.51 699.62 476.35 698.53 475.45 700.16 474.64 701.61 473.82 703.05 473.01 711.82 468.4 717.52 465.41 717.52 461.43 717.52 459.63 716.34 457.46 710.74 457.46 704.68 457.46 694.92 460.17 684.61 464.69 673.76 469.39 663.54 475.63 654.41 483.13 646.36 490.01 636.51 499.59 624.57 512.07L624.66 513.88 661.55 545.25 663.54 544.62Z" fill="#c65a42" opacity="1" stroke-width="4" stroke="none"></path><path d="M430.72 657.73C440.75 642.72 451.6 634.94 452.42 634.31L536.96 633.68 537.23 632.96 547.36 585.58C550.07 587.66 575.48 607.28 596 607.28 596.63 607.28 597.27 607.28 597.9 607.19 611.28 606.37 637.59 597.24 663.45 544.71L663.54 544.62 624.57 512.07 624.48 512.16C610.47 526.9 598.53 540.55 597.09 542.18 563.45 498.05 535.96 491.45 522.58 491.45 522.22 491.45 521.86 491.45 521.59 491.45H521.04C520.95 491.45 520.86 491.45 520.77 491.45L518.69 481.15H465.08C465.08 481.15 466.25 487.02 466.52 488.29 464.53 488.56 447.9 491.45 436.41 504.11 431.35 509.54 413.72 516.68 406.76 534.58 402.51 545.25 408.93 563.42 406.13 573.37 403.86 581.42 402.15 589.01 401.15 595.61 396.72 623.82 412.64 648.15 430.54 657.64L430.72 657.73Z" fill="#ffc930" opacity="1" stroke-width="4" stroke="none"></path><path d="M452.42 634.31L452.33 632.96 443.38 581.6C436.05 584.22 434.7 593.44 433.25 603.3 432.07 610.98 430.9 618.85 427.01 625.09 419.87 636.57 411.46 640.19 411.46 640.19 416.7 647.69 423.39 653.84 430.45 657.55 430.45 657.55 452.24 634.4 452.42 634.31Z" fill="#000000" opacity="0.3" stroke-width="4" stroke="none"></path><path d="M403.59 573.55C404.95 573.55 406.03 573.37 406.03 573.37 406.03 573.37 408.02 566.95 408.57 565.41 413.99 550.59 415.71 544.53 425.2 523.73 432.26 527.17 442.65 528.8 450.52 528.7 461.1 528.61 471.59 526.63 480.45 520.93 487.95 516.23 497.45 506.55 499.89 486.66 500.79 479.34 500.61 471.92 499.53 464.69L499.44 464.6C499.44 464.6 475.2 453.66 480.54 437.66 481.89 433.5 485.51 431.33 491.12 431.33 499.34 431.33 509.38 435.94 509.38 435.94 509.47 435.85 519.51 423.82 512 411.62 511.82 411.34 512.09 410.98 512.36 411.07 514.72 411.62 516.98 411.98 519.42 411.98 530.9 411.98 532.98 402.66 532.98 402.66V402.57C528.64 394.07 523.21 389.01 514.99 385.94 509.02 383.59 502.69 382.41 496.36 382.5 484.15 382.5 472.49 386.57 464.35 393.8 452.15 404.83 454.5 425.27 457.21 439.46L457.3 439.73C452.78 439.1 448.26 438.74 443.74 438.74 428.01 438.74 399.98 442.72 388.86 469.21 383.16 482.95 381.53 503.39 394.19 519.84 392.02 520.57 376.02 526.35 373.48 538.92 371.68 546.97 373.76 555.38 379 561.71 384.97 568.76 394.82 573.55 403.59 573.55Z" fill="#30242a" opacity="1" stroke-width="4" stroke="none"></path><path d="M531.44 896.25C532.62 888.29 533.79 880.43 534.97 872.83 537.5 855.65 539.85 839.74 541.03 831.24 553.32 742 542.47 653.57 537.23 633.14V632.96H452.33 452.24C420.77 659.72 409.74 692.18 393.65 737.75 385.69 760.17 378.37 774.19 364.9 797.06 359.02 807.01 352.15 815.33 345.46 823.37 341.84 827.71 338.49 831.78 335.42 835.94 332.35 840.01 329.63 843.63 327.19 847.15L472.4 882.14C472.49 882.14 472.49 882.14 472.49 882.05L508.84 777.35C508.84 777.26 509.02 777.26 509.02 777.35L508.57 890.73C508.57 890.82 508.57 890.82 508.66 890.82L531.44 896.25Z" fill="#61ccff" opacity="1" stroke-width="4" stroke="none"></path><path d="M509.2 777.35L520.32 632.96" stroke="#2a4552" stroke-width="4" stroke-linecap="round" stroke-linejoin="round" opacity="1" fill="none"></path><path d="M567.7 1036.58V1036.39C567.79 1031.06 566.16 1025.91 563.09 1021.57L563 1021.48H452.87V1021.66C453.77 1026.63 455.04 1031.6 456.49 1036.39L567.7 1036.58Z" fill="#605b5e" opacity="1" stroke-width="4" stroke="none"></path><path d="M371.31 1036.48C373.48 1031.6 374.12 1026.09 372.94 1020.75L372.4 1020.21 272.58 976.8 271.86 977.16C270.77 982.14 269.87 987.3 269.23 992.45V992.54L371.31 1036.48Z" fill="#605b5e" opacity="1" stroke-width="4" stroke="none"></path><path d="M372.58 1020.57C372.76 1020.66 372.94 1020.48 372.85 1020.3 372.22 1017.68 371.31 1015.06 370.05 1012.61 369.51 1011.53 368.78 1010.17 368.06 1008.73 364.53 1001.95 359.11 991.73 355.94 983.68 352.78 975.45 353.59 965.06 358.48 951.76 358.48 951.67 358.48 951.58 358.39 951.49L342.29 944.35C336.32 941.73 329.36 942.54 324.03 946.34L302.06 962.07C301.88 962.16 301.69 962.07 301.69 961.89L304.77 943.81C306.22 935.31 301.69 926.9 293.74 923.46L288.4 921.11 288.31 921.29C281.44 939.38 275.93 958 271.77 976.9 271.77 976.99 271.77 977.08 271.86 977.17L372.58 1020.57Z" fill="#ff9edd" opacity="1" stroke-width="4" stroke="none"></path><path d="M525.29 979.25L508.48 982.78" stroke="#585356" stroke-width="4" stroke-linecap="round" stroke-linejoin="round" opacity="1" fill="none"></path><path d="M530.09 990.91L515.71 1001.31" stroke="#585356" stroke-width="4" stroke-linecap="round" stroke-linejoin="round" opacity="1" fill="none"></path><path d="M475.93 991.91L480.27 1021.48" stroke="#585356" stroke-width="4" stroke-linecap="round" stroke-linejoin="round" opacity="1" fill="none"></path><path d="M301.78 961.8L295.55 987.57" stroke="#585356" stroke-width="4" stroke-linecap="round" stroke-linejoin="round" opacity="1" fill="none"></path><path d="M354.05 972.47L340.3 973.74" stroke="#585356" stroke-width="4" stroke-linecap="round" stroke-linejoin="round" opacity="1" fill="none"></path><path d="M355.94 983.77L341.93 989.11" stroke="#585356" stroke-width="4" stroke-linecap="round" stroke-linejoin="round" opacity="1" fill="none"></path><path d="M443.38 581.6L452.33 632.96H537.23" stroke="#000000" stroke-width="4" stroke-linecap="round" stroke-linejoin="round" opacity="1" fill="none"></path><path d="M431.62 610.26L447.99 607.37" stroke="#000000" stroke-width="4" stroke-linecap="round" stroke-linejoin="round" opacity="1" fill="none"></path><path d="M597.09 542.18L606.13 554.2" stroke="#000000" stroke-width="4" stroke-linecap="round" stroke-linejoin="round" opacity="1" fill="none"></path><path d="M547.36 585.58L528.37 567.76" stroke="#000000" stroke-width="4" stroke-linecap="round" stroke-linejoin="round" opacity="1" fill="none"></path><path d="M698.53 475.44C691.12 475.98 683.43 477.88 676.65 480.96" stroke="#222020" stroke-width="4" stroke-linecap="round" stroke-linejoin="round" opacity="1" fill="none"></path><path d="M701.06 486.66C692.29 487.2 681.17 490.91 681.17 490.91" stroke="#222020" stroke-width="4" stroke-linecap="round" stroke-linejoin="round" opacity="1" fill="none"></path><path d="M704.59 498.05C699.62 497.15 688.32 500.22 686.6 501.76" stroke="#222020" stroke-width="4" stroke-linecap="round" stroke-linejoin="round" opacity="1" fill="none"></path><path d="M517.7 475C513.18 473.1 510.74 472.19 510.74 472.19" stroke="#222020" stroke-width="4" stroke-linecap="round" stroke-linejoin="round" opacity="1" fill="none"></path><path d="M497.63 445.7L503.96 449.32" stroke="#222020" stroke-width="4" stroke-linecap="round" stroke-linejoin="round" opacity="1" fill="none"></path><path d="M425.2 523.73C416.16 520.12 415.35 516.23 415.35 516.23" stroke="#231f21" stroke-width="4" stroke-linecap="round" stroke-linejoin="round" opacity="1" fill="none"></path><path d="M394.19 519.84C396.36 522.47 399.16 524.91 401.79 527.08" stroke="#231f21" stroke-width="4" stroke-linecap="round" stroke-linejoin="round" opacity="1" fill="none"></path><path d="M457.3 439.73L460.56 453.83" stroke="#231f21" stroke-width="4" stroke-linecap="round" stroke-linejoin="round" opacity="1" fill="none"></path><path d="M531.99 441.18C534.7 444.8 540.12 444.8 540.12 444.8" stroke="#222020" stroke-width="4" stroke-linecap="round" stroke-linejoin="round" opacity="1" fill="none"></path><path d="M531.53 429.43C530.29 429.43 529.27 428.41 529.27 427.17 529.27 425.92 530.29 424.91 531.53 424.91 532.78 424.91 533.79 425.92 533.79 427.17 533.79 428.41 532.78 429.43 531.53 429.43Z" fill="#231f20" opacity="1" stroke-width="4" stroke="none"></path><path d="M547.36 585.58L535.69 574.64C534.97 574.09 532.53 573.82 531.62 573.82 530.36 573.82 529.27 575.18 528.46 576.17 527.65 577.08 527.37 578.34 527.65 579.61 530.45 593.53 540.76 613.61 540.85 613.88L541.21 614.6 547.36 585.58Z" fill="#000000" opacity="0.3" stroke-width="4" stroke="none"></path></g><g><path d="M1259.94 532.41L1364.16 548.94" stroke="#ff9edd" stroke-width="4" stroke-linecap="round" stroke-linejoin="round" opacity="1" fill="none"></path><path d="M1154.63 437.64L1303.47 378.45" stroke="#ff9edd" stroke-width="4" stroke-linecap="round" stroke-linejoin="round" opacity="1" fill="none"></path><path d="M1121.16 340.63L1170.71 273.27" stroke="#ff9edd" stroke-width="4" stroke-linecap="round" stroke-linejoin="round" opacity="1" fill="none"></path></g></svg>