<svg xmlns="http://www.w3.org/2000/svg" height="1200" width="1600" version="1.1" xmlns:xlink="http://www.w3.org/1999/xlink" xmlns:svgjs="http://svgjs.com/svgjs"><rect fill="#00000000" width="1600" height="1200"></rect><g><path d="M1300.94 345.17C1301.46 367.34 1296.46 389.92 1292.61 412.09 1266.28 557.6 1278.87 710.28 1234.12 851.21 1224.02 882.64 1210.07 914.91 1183.74 934.58 1145.33 963.31 1094.02 957.89 1049.06 959.87 991.81 962.37 934.78 958.62 877.74 957.37 786.04 955.6 694.56 951.96 603.07 946.76 555.61 944.05 507.63 948.74 461 939.16 396.57 925.84 377.63 892.43 367.32 830.5 341.51 674.58 316.43 518.25 300.92 360.88 298.01 331.64 296.24 299.68 312.99 275.54 348.17 225.37 428.11 244.31 479.21 247.02 562.27 251.49 645.43 253.37 728.49 254.41 890.75 256.38 1053.01 254.93 1215.07 263.77 1256.91 265.96 1291.26 280.22 1299.69 325.7 1300.21 332.36 1300.94 338.71 1300.94 345.17Z" fill="#deeff7" opacity="1" stroke-width="2" stroke="none"></path></g><g><path d="M379.91 917.63H372.26C341.39 917.63 316.19 942.82 316.19 973.69H435.97C435.97 942.57 411.03 917.63 379.91 917.63Z" fill="#48466d" stroke="#333333" stroke-width="2" stroke-linecap="round" stroke-linejoin="round" opacity="1"></path><path d="M376.21 917.63V686.46" stroke="#333333" stroke-width="2" stroke-linecap="round" stroke-linejoin="round" opacity="1" fill="none"></path><path d="M376.21 686.46C351.76 686.46 332.25 666.71 332.25 642.5V592.12C332.25 567.67 352 548.16 376.21 548.16 400.66 548.16 420.17 567.92 420.17 592.12V642.5C420.17 666.71 400.41 686.46 376.21 686.46Z" fill="#48466d" stroke="#333333" stroke-width="2" stroke-linecap="round" stroke-linejoin="round" opacity="1"></path><path d="M332 592.12H376.21" stroke="#333333" stroke-width="2" stroke-linecap="round" stroke-linejoin="round" opacity="1" fill="none"></path><path d="M332 617.07H376.21" stroke="#333333" stroke-width="2" stroke-linecap="round" stroke-linejoin="round" opacity="1" fill="none"></path><path d="M332 642.26H376.21" stroke="#333333" stroke-width="2" stroke-linecap="round" stroke-linejoin="round" opacity="1" fill="none"></path></g><g><path d="M1384.96 370.26H953.47V655.29H1384.96V370.26Z" fill="#3d84a8" stroke="#333333" stroke-width="2" stroke-linecap="round" stroke-linejoin="round" opacity="1"></path><path d="M987.21 399.3H1040.92" stroke="#333333" stroke-width="2" stroke-linecap="round" stroke-linejoin="round" opacity="1" fill="none"></path><path d="M1034.11 417.46H1040.92" stroke="#333333" stroke-width="2" stroke-linecap="round" stroke-linejoin="round" opacity="1" fill="none"></path><path d="M987.21 417.46H1027.3" stroke="#333333" stroke-width="2" stroke-linecap="round" stroke-linejoin="round" opacity="1" fill="none"></path><path d="M987.21 435.62H1014.29" stroke="#333333" stroke-width="2" stroke-linecap="round" stroke-linejoin="round" opacity="1" fill="none"></path></g><g><path d="M1158.84 446.93L1188.92 485.06 1237.22 482.09 1210.11 522.34 1227.48 567.25 1181.29 553.7 1144.01 584.63 1142.31 536.32 1101.22 510.06 1146.97 493.53 1158.84 446.93Z" fill="#abedd8" stroke="#333333" stroke-width="2" stroke-linecap="round" stroke-linejoin="round" opacity="1"></path></g><g><path d="M1251.43 973.79H1105.03" stroke="#333333" stroke-width="2" stroke-linecap="round" stroke-linejoin="round" opacity="1" fill="none"></path><path d="M1184.06 737.77C1195.24 737.77 1204.29 728.71 1204.29 717.53 1204.29 706.36 1195.24 697.3 1184.06 697.3 1172.88 697.3 1163.83 706.36 1163.83 717.53 1163.83 728.71 1172.88 737.77 1184.06 737.77Z" fill="#78c7e0" stroke="#333333" stroke-width="2" stroke-linecap="round" stroke-linejoin="round" opacity="1"></path><path d="M1251.43 819.06H1116.93L1146.8 973.79H1221.55L1251.43 819.06Z" fill="#48466d" stroke="#333333" stroke-width="2" stroke-linecap="round" stroke-linejoin="round" opacity="1"></path><path d="M1184.06 819.06V737.77" stroke="#333333" stroke-width="2" stroke-linecap="round" stroke-linejoin="round" opacity="1" fill="none"></path><path d="M1211.43 819.06V771.09" stroke="#333333" stroke-width="2" stroke-linecap="round" stroke-linejoin="round" opacity="1" fill="none"></path><path d="M1154.9 819.06V786.68" stroke="#333333" stroke-width="2" stroke-linecap="round" stroke-linejoin="round" opacity="1" fill="none"></path></g><g><path d="M464.81 974L143.1 974" stroke="#333333" stroke-width="2" stroke-linecap="round" stroke-linejoin="round" opacity="1" fill="none"></path><path d="M1456.9 974L534.27 974" stroke="#333333" stroke-width="2" stroke-linecap="round" stroke-linejoin="round" opacity="1" fill="none"></path></g><g><path d="M788.39 792.2L872.73 945.95" stroke="#333333" stroke-width="2" stroke-linecap="round" stroke-linejoin="round" opacity="1" fill="none"></path><path d="M1052.29 813.29H547.71C539.18 813.29 532.31 806.42 532.31 797.89V743.4L800 593.69 1067.69 743.4V797.89C1067.69 806.42 1060.82 813.29 1052.29 813.29Z" fill="#46cdcf" stroke="#333333" stroke-width="2" stroke-linecap="round" stroke-linejoin="round" opacity="1"></path><path d="M955.4 743.4H532.31V444.21H1067.69V743.4" fill="#abedd8" opacity="1" stroke-width="2" stroke="none"></path><path d="M955.4 743.4H532.31V444.21H1067.69V743.4" stroke="#333333" stroke-width="2" stroke-linecap="round" stroke-linejoin="round" opacity="1" fill="none"></path><path d="M991.88 743.4H1042.34" stroke="#333333" stroke-width="2" stroke-linecap="round" stroke-linejoin="round" opacity="1" fill="none"></path><path d="M898.31 974.14H701.69V957.08C701.69 946.18 710.45 937.18 721.59 937.18H878.65C889.55 937.18 898.55 945.95 898.55 957.08L898.31 974.14Z" fill="#46cdcf" stroke="#333333" stroke-width="2" stroke-linecap="round" stroke-linejoin="round" opacity="1"></path></g><g><path d="M885.18 612.29L746.82 694V531.38L885.18 612.29Z" fill="#abedd8" stroke="#333333" stroke-width="2" stroke-linecap="round" stroke-linejoin="round" opacity="1"></path></g><g><path d="M475.69 498.91H446.77V597.71H624.86L659.51 632.3V597.71H680.21V498.91H495.72" fill="#78c7e0" opacity="1" stroke-width="2" stroke="none"></path><path d="M475.69 498.91H446.77V597.71H624.86L659.51 632.3V597.71H680.21V498.91H495.72" stroke="#333333" stroke-width="2" stroke-linecap="round" stroke-linejoin="round" opacity="1" fill="none"></path><path d="M490.78 498.91H481.11" stroke="#333333" stroke-width="2" stroke-linecap="round" stroke-linejoin="round" opacity="1" fill="none"></path><path d="M502.56 572.98C516.18 572.98 527.23 561.93 527.23 548.31 527.23 534.69 516.18 523.64 502.56 523.64 488.94 523.64 477.89 534.69 477.89 548.31 477.89 561.93 488.94 572.98 502.56 572.98Z" stroke="#333333" stroke-width="2" stroke-linecap="round" stroke-linejoin="round" opacity="1" fill="none"></path><path d="M548.81 558.17H649.08" stroke="#333333" stroke-width="2" stroke-linecap="round" stroke-linejoin="round" opacity="1" fill="none"></path><path d="M574.11 570.33H630.03" stroke="#333333" stroke-width="2" stroke-linecap="round" stroke-linejoin="round" opacity="1" fill="none"></path><path d="M548.81 570.33H567.62" stroke="#333333" stroke-width="2" stroke-linecap="round" stroke-linejoin="round" opacity="1" fill="none"></path></g><g><path d="M277.6 480.36C328.52 480.36 369.8 439.08 369.8 388.16 369.8 337.24 328.52 295.96 277.6 295.96 226.68 295.96 185.39 337.24 185.39 388.16 185.39 439.08 226.68 480.36 277.6 480.36Z" fill="#3d84a8" stroke="#333333" stroke-width="2" stroke-linecap="round" stroke-linejoin="round" opacity="1"></path><path d="M258.6 426.44H311.68V364.97H275.64L288.91 333.4H268.24L254.97 364.97H229.54V426.44H247.42" fill="#46cdcf" opacity="1" stroke-width="2" stroke="none"></path><path d="M258.6 426.44H311.68V364.97H275.64L288.91 333.4H268.24L254.97 364.97H229.54V426.44H247.42" stroke="#333333" stroke-width="2" stroke-linecap="round" stroke-linejoin="round" opacity="1" fill="none"></path><path d="M275.64 364.97C283.05 364.97 289.05 370.98 289.05 378.38" stroke="#333333" stroke-width="2" stroke-linecap="round" stroke-linejoin="round" opacity="1" fill="none"></path><path d="M275.64 391.79C278.44 391.79 280.95 390.95 283.18 389.56 286.82 387.18 289.05 383.13 289.05 378.38" stroke="#333333" stroke-width="2" stroke-linecap="round" stroke-linejoin="round" opacity="1" fill="none"></path><path d="M325.79 364.97H297.71V380.34H325.79V364.97Z" fill="#46cdcf" stroke="#333333" stroke-width="2" stroke-linecap="round" stroke-linejoin="round" opacity="1"></path><path d="M325.79 380.34H297.71V395.7H325.79V380.34Z" fill="#46cdcf" stroke="#333333" stroke-width="2" stroke-linecap="round" stroke-linejoin="round" opacity="1"></path><path d="M325.79 395.7H297.71V411.07H325.79V395.7Z" fill="#46cdcf" stroke="#333333" stroke-width="2" stroke-linecap="round" stroke-linejoin="round" opacity="1"></path><path d="M325.79 411.07H297.71V426.44H325.79V411.07Z" fill="#46cdcf" stroke="#333333" stroke-width="2" stroke-linecap="round" stroke-linejoin="round" opacity="1"></path></g></svg>