<svg xmlns="http://www.w3.org/2000/svg" xmlns:xlink="http://www.w3.org/1999/xlink" version="1.1" width="1000" height="1000" viewBox="0 0 1000 1000" xml:space="preserve">
<desc>Created with Fabric.js 3.5.0</desc>
<defs>
</defs>
<rect x="0" y="0" width="100%" height="100%" fill="rgba(255,255,255,0)"/>
<g transform="matrix(0.3488 0 0 0.3488 511.6088 489.043)" id="Layer_3">
	<image style="stroke: none; stroke-width: 0; stroke-dasharray: none; stroke-linecap: butt; stroke-dashoffset: 0; stroke-linejoin: miter; stroke-miterlimit: 4; is-custom-font: none; font-file-url: none; fill: rgb(0,0,0); fill-rule: nonzero; opacity: 1; visibility: hidden;" vector-effect="non-scaling-stroke" xlink:href="https://cdn.pixelied.com/user-assets/2c0f99fe-bbe7-4c68-9826-febfef4f9416.jpg" x="-500" y="-540" width="1000" height="1080"/>
</g>
<g transform="matrix(1.0435 0 0 1.0435 361.9752 569.0492)" id="Layer_4">
<polygon style="stroke: none; stroke-width: 1; stroke-dasharray: none; stroke-linecap: butt; stroke-dashoffset: 0; stroke-linejoin: miter; stroke-miterlimit: 4; is-custom-font: none; font-file-url: none; fill: rgb(33,149,255); fill-rule: nonzero; opacity: 1;" vector-effect="non-scaling-stroke" points="-128.0175,71.4525 128.7525,217.3115 128.7525,-66.5245 -128.7525,-217.3115 "/>
</g>
<g transform="matrix(1.0435 0 0 1.0435 632.565 426.3589)" id="Layer_4">
<polygon style="stroke: none; stroke-width: 1; stroke-dasharray: none; stroke-linecap: butt; stroke-dashoffset: 0; stroke-linejoin: miter; stroke-miterlimit: 4; is-custom-font: none; font-file-url: none; fill: rgb(33,149,255); fill-rule: nonzero; opacity: 1;" vector-effect="non-scaling-stroke" points="-129.482,70.184 127.287,216.046 130.086,-71.653 -130.086,-216.046 "/>
</g>
<g transform="matrix(1.0435 0 0 1.0435 497.0264 436.7415)" id="Layer_4">
<polygon style="stroke: none; stroke-width: 1; stroke-dasharray: none; stroke-linecap: butt; stroke-dashoffset: 0; stroke-linejoin: miter; stroke-miterlimit: 4; is-custom-font: none; font-file-url: none; fill: rgb(8,76,139); fill-rule: nonzero; opacity: 1;" vector-effect="non-scaling-stroke" points="-0.53,59.1685 -102.685,-0.6515 -0.53,-59.1685 102.685,-0.2595 "/>
</g>
<g transform="matrix(1.0435 0 0 1.0435 497.028 526.4815)" id="Layer_4">
<polygon style="stroke: none; stroke-width: 1; stroke-dasharray: none; stroke-linecap: butt; stroke-dashoffset: 0; stroke-linejoin: miter; stroke-miterlimit: 4; is-custom-font: none; font-file-url: none; fill: rgb(8,76,139); fill-rule: nonzero; opacity: 1;" vector-effect="non-scaling-stroke" points="-102.5415,28.1515 -0.6755,86.0165 102.5415,26.5855 102.5415,-86.0165 -0.6755,-26.5875 -102.5415,-86.0165 "/>
</g>
<g transform="matrix(1.0435 0 0 1.0435 443.022 526.2775)" id="Layer_4">
<polygon style="stroke: none; stroke-width: 1; stroke-dasharray: none; stroke-linecap: butt; stroke-dashoffset: 0; stroke-linejoin: miter; stroke-miterlimit: 4; is-custom-font: none; font-file-url: none; fill: rgb(7,102,188); fill-rule: nonzero; opacity: 1;" vector-effect="non-scaling-stroke" points="-50.787,28.347 51.079,86.212 51.079,-26.392 -51.079,-86.212 "/>
</g>
</svg>